<svg width="64" height="64" viewBox="0 0 64 64" fill="none" xmlns="http://www.w3.org/2000/svg">
<path fill-rule="evenodd" clip-rule="evenodd" d="M4 32C4 39.4261 6.94999 46.548 12.201 51.799C17.452 57.05 24.5739 60 32 60C39.4261 60 46.548 57.05 51.799 51.799C57.05 46.548 60 39.4261 60 32C60 24.5739 57.05 17.452 51.799 12.201C46.548 6.94999 39.4261 4 32 4C24.5739 4 17.452 6.94999 12.201 12.201C6.94999 17.452 4 24.5739 4 32ZM64 32C64 40.4869 60.6286 48.6263 54.6274 54.6274C48.6263 60.6286 40.4869 64 32 64C23.5131 64 15.3737 60.6286 9.37258 54.6274C3.37142 48.6263 0 40.4869 0 32C0 23.5131 3.37142 15.3737 9.37258 9.37258C15.3737 3.37142 23.5131 0 32 0C40.4869 0 48.6263 3.37142 54.6274 9.37258C60.6286 15.3737 64 23.5131 64 32ZM46 30C46.5304 30 47.0391 30.2107 47.4142 30.5858C47.7893 30.9609 48 31.4696 48 32C48 32.5304 47.7893 33.0391 47.4142 33.4142C47.0391 33.7893 46.5304 34 46 34H22.828L31.416 42.584C31.602 42.77 31.7495 42.9907 31.8501 43.2337C31.9507 43.4766 32.0025 43.737 32.0025 44C32.0025 44.263 31.9507 44.5234 31.8501 44.7663C31.7495 45.0093 31.602 45.23 31.416 45.416C31.23 45.602 31.0093 45.7495 30.7663 45.8501C30.5234 45.9507 30.263 46.0025 30 46.0025C29.737 46.0025 29.4766 45.9507 29.2337 45.8501C28.9907 45.7495 28.77 45.602 28.584 45.416L16.584 33.416C16.3977 33.2302 16.25 33.0095 16.1491 32.7665C16.0483 32.5236 15.9964 32.2631 15.9964 32C15.9964 31.7369 16.0483 31.4764 16.1491 31.2335C16.25 30.9905 16.3977 30.7698 16.584 30.584L28.584 18.584C28.9595 18.2085 29.4689 17.9975 30 17.9975C30.5311 17.9975 31.0405 18.2085 31.416 18.584C31.7915 18.9595 32.0025 19.4689 32.0025 20C32.0025 20.5311 31.7915 21.0405 31.416 21.416L22.828 30H46Z" fill="white"/>
</svg>
