<svg width="28" height="34" viewBox="0 0 28 34" fill="none" xmlns="http://www.w3.org/2000/svg">
<path fill-rule="evenodd" clip-rule="evenodd" d="M6.67378 8C6.66905 7.88948 6.66667 7.77835 6.66667 7.66667C6.66667 3.43248 10.0991 0 14.3333 0C18.5675 0 22 3.43248 22 7.66667C22 7.77835 21.9976 7.88948 21.9929 8H28V23.3333C28 28.8562 23.5228 33.3333 18 33.3333H10C4.47715 33.3333 0 28.8562 0 23.3333V8H6.67378ZM18.6541 8H10.0127C10.0043 7.88999 10 7.77883 10 7.66667C10 5.27344 11.9401 3.33334 14.3334 3.33334C16.7266 3.33334 18.6667 5.27344 18.6667 7.66667C18.6667 7.77883 18.6624 7.88999 18.6541 8Z" fill="white"/>
</svg>
