<svg width="71" height="21" viewBox="0 0 71 21" fill="none" xmlns="http://www.w3.org/2000/svg">
<path d="M12.45 1.02V5.34C10.83 4.4 9.15 3.93 7.41 3.93C6.63 3.93 6.03 4.09 5.61 4.41C5.21 4.73 5.01 5.14 5.01 5.64C5.01 6.14 5.26 6.59 5.76 6.99C6.26 7.37 7.01 7.78 8.01 8.22C8.63 8.5 9.14 8.75 9.54 8.97C9.96 9.17 10.43 9.46 10.95 9.84C11.49 10.2 11.91 10.59 12.21 11.01C12.53 11.41 12.8 11.91 13.02 12.51C13.24 13.11 13.35 13.76 13.35 14.46C13.35 16.28 12.68 17.76 11.34 18.9C10 20.02 8.22 20.58 6 20.58C3.62 20.58 1.68 20.16 0.18 19.32V14.67C2 15.99 3.94 16.65 6 16.65C6.7 16.65 7.28 16.47 7.74 16.11C8.2 15.73 8.43 15.24 8.43 14.64C8.43 14.44 8.4 14.25 8.34 14.07C8.28 13.89 8.17 13.72 8.01 13.56C7.85 13.4 7.69 13.27 7.53 13.17C7.39 13.05 7.17 12.92 6.87 12.78C6.59 12.62 6.35 12.49 6.15 12.39C5.95 12.29 5.65 12.15 5.25 11.97C4.87 11.79 4.56 11.65 4.32 11.55C3.02 10.95 1.97 10.21 1.17 9.33C0.39 8.45 0 7.28 0 5.82C0 4.08 0.64 2.68 1.92 1.62C3.2 0.54 4.97 0 7.23 0C9.25 0 10.99 0.34 12.45 1.02Z" fill="white"/>
<path d="M20.8402 16.65H25.83L28.7602 20.34H16.1902V0.12H25.83L28.6402 3.81H20.8402V8.4H25.83L27.8002 12.06H20.8402V16.65Z" fill="white"/>
<path d="M38.4185 12.48H43.2785L43.0685 11.76C42.4885 9.8 42.0085 8.13 41.6285 6.75C41.2685 5.37 41.0485 4.48 40.9685 4.08L40.8485 3.48C40.6885 4.58 39.9485 7.34 38.6285 11.76L38.4185 12.48ZM45.6185 20.34L44.3885 16.2H37.3085L36.0785 20.34H31.2485L37.9985 0.12H43.8185L50.5685 20.34H45.6185Z" fill="white"/>
<path d="M53.2214 20.34V0.12H58.2914L63.0014 8.49C63.6614 9.67 64.2314 10.78 64.7114 11.82C65.2114 12.84 65.5314 13.56 65.6714 13.98L65.9114 14.64C65.7114 13.16 65.6114 11.11 65.6114 8.49V0.12H70.2314V20.34H65.1614L60.3314 11.97C59.6914 10.89 59.1214 9.83 58.6214 8.79C58.1414 7.73 57.8114 6.95 57.6314 6.45L57.3914 5.7C57.6914 7.5 57.8414 9.59 57.8414 11.97V20.34H53.2214Z" fill="white"/>
</svg>
