<svg width="37" height="35" viewBox="0 0 37 35" fill="none" xmlns="http://www.w3.org/2000/svg">
<path fill-rule="evenodd" clip-rule="evenodd" d="M27 13.5C27 16.1669 26.2267 18.6531 24.8921 20.7468L36.1468 30.6774C36.9751 31.4082 37.0541 32.6721 36.3232 33.5003C35.5924 34.3286 34.3286 34.4076 33.5003 33.6768L22.2677 23.7657C19.9089 25.7822 16.8467 27 13.5 27C6.04416 27 0 20.9558 0 13.5C0 6.04416 6.04416 0 13.5 0C20.9558 0 27 6.04416 27 13.5ZM13.5 23C18.7467 23 23 18.7467 23 13.5C23 8.25329 18.7467 4 13.5 4C8.25329 4 4 8.25329 4 13.5C4 18.7467 8.25329 23 13.5 23Z" fill="white"/>
</svg>
